<?xml version="1.0" encoding="utf-8"?>
<!-- Generator: Adobe Illustrator 27.3.1, SVG Export Plug-In . SVG Version: 6.00 Build 0)  -->
<svg version="1.1" id="Layer_1" xmlns="http://www.w3.org/2000/svg" xmlns:xlink="http://www.w3.org/1999/xlink" x="0px" y="0px"
	 viewBox="0 0 1457.4 1028.4" style="enable-background:new 0 0 1457.4 1028.4;" xml:space="preserve">
<style type="text/css">
	.st0{enable-background:new    ;}
	.st1{fill:#005460;}
	.st2{fill:#005D6B;}
	.st3{fill:#808080;}
	.st4{fill:#8F8F8F;}
	.st5{fill:#E9E9E9;}
	.st6{fill:#0098AE;}
	.st7{fill:#8AE3FF;}
	.st8{fill:#00554F;}
	.st9{fill:#005F58;}
	.st10{opacity:0.9;}
	.st11{fill:#BBC2CC;}
	.st12{opacity:0.88;}
	.st13{fill:#F1FF8D;stroke:#F1FFA1;stroke-width:3;stroke-miterlimit:10;}
	.st14{fill:#8AE3FF;stroke:#000000;stroke-miterlimit:10;}
	.st15{fill:none;stroke:#005F58;stroke-width:3;stroke-miterlimit:10;}
	.st16{fill:#FFFFFF;stroke:#FFFFFF;stroke-width:2;stroke-miterlimit:10;}
	.st17{fill:#FFFFFF;stroke:#000000;stroke-width:2;stroke-miterlimit:10;}
	.st18{font-family:'ArialMT';}
	.st19{font-size:45.7156px;}
	.st20{font-size:45px;}
	.st21{font-family:'TimesNewRomanPS-BoldMT';}
	.st22{font-size:32px;}
	.st23{font-size:19.7019px;}
	.st24{font-size:47.7148px;}
	.st25{fill:none;stroke:#23005F;stroke-width:0.75;stroke-miterlimit:10;}
	.st26{fill:#FFFFFF;}
	.st27{font-size:4.4897px;}
	.st28{font-size:4.0126px;}
	.st29{font-size:4.0123px;}
	.st30{font-size:11.0028px;}
	.st31{font-size:10.3603px;}
	.st32{font-size:3.5335px;}
	.st33{opacity:0.78;fill:none;stroke:#004D40;stroke-miterlimit:10;}
</style>
<g>
	<g>
		<g>
			
				<image style="overflow:visible;enable-background:new    ;" width="1067" height="118" xlink:href="B5BEEBF3.png"  transform="matrix(0.999 0 0 0.999 320.8723 821.0783)">
			</image>
		</g>
	</g>
</g>
<g>
	<g>
		
			<image style="overflow:visible;enable-background:new    ;" width="646" height="271" xlink:href="B5BEEBF1.png"  transform="matrix(0.9981 0 0 0.9981 730.9022 644.6696)">
		</image>
	</g>
</g>
<g>
	<g>
		
			<image style="overflow:visible;enable-background:new    ;" width="88" height="511" xlink:href="B5BEEBFE.png"  transform="matrix(0.4891 0 0 0.4891 357.2998 681.0646)">
		</image>
	</g>
</g>
<g>
	<g>
		
			<image style="overflow:visible;enable-background:new    ;" width="86" height="512" xlink:href="B5BEEBFF.png"  transform="matrix(0.4885 0 0 0.4885 402.8992 629.1094)">
		</image>
	</g>
</g>
<g>
	<g>
		
			<image style="overflow:visible;enable-background:new    ;" width="88" height="512" xlink:href="B5BEEBF2.png"  transform="matrix(0.4881 0 0 0.4881 650.2337 629.19)">
		</image>
	</g>
</g>
<g>
	<g>
		
			<image style="overflow:visible;enable-background:new    ;" width="88" height="512" xlink:href="B5BEEBF5.png"  transform="matrix(0.4881 0 0 0.4881 605.1497 682.0576)">
		</image>
	</g>
</g>
<g>
	<g>
		<g class="st0">
			<g>
				<polygon class="st1" points="723.3,648.8 723.3,664.3 380.9,663.1 380.9,647.7 				"/>
			</g>
			<g>
				<polygon class="st2" points="380.9,647.7 380.9,663.1 323.7,730.5 323.7,715 				"/>
			</g>
			<g>
				<polygon class="st3" points="666,716.2 666,731.6 323.7,730.5 323.7,715 				"/>
			</g>
			<g>
				<polygon class="st4" points="723.3,648.8 723.3,664.3 666,731.6 666,716.2 				"/>
			</g>
			<g>
				<polygon class="st5" points="380.9,647.7 723.3,648.8 666,716.2 323.7,715 				"/>
			</g>
			<g>
				<polygon class="st1" points="666.5,717.1 666.5,732.6 321.6,731.4 321.6,715.9 				"/>
			</g>
			<g>
				<polygon class="st2" points="725.4,647.9 725.4,663.3 666.5,732.6 666.5,717.1 				"/>
			</g>
			<g>
				<path class="st6" d="M380.4,646.7l344.9,1.2l-58.9,69.2l-344.9-1.2L380.4,646.7z M666,716.2l57.2-67.3l-342.4-1.2L323.6,715
					L666,716.2"/>
			</g>
		</g>
	</g>
</g>
<polygon id="Water_Tank_Base" class="st7" points="665.8,717.5 323.5,715.7 381.1,648 723.4,649.7 "/>
<g>
	<g>
		<g class="st0">
			<g>
				<polygon class="st8" points="380.3,461.9 725.3,463.1 725.3,648.5 380.3,647.3 				"/>
			</g>
			<g>
				<polygon class="st8" points="723.2,464 723.2,649.4 380.8,648.3 380.8,462.8 				"/>
			</g>
			<g>
				<polygon class="st3" points="380.8,462.8 723.2,464 723.2,649.4 380.8,648.3 				"/>
			</g>
			<g>
				<polygon class="st9" points="321.5,531.1 380.3,461.9 380.3,647.3 321.5,716.5 				"/>
			</g>
			<g>
				<polygon class="st9" points="380.8,462.8 380.8,648.3 323.6,715.6 323.6,530.2 				"/>
			</g>
			<g>
				<polygon class="st4" points="323.6,530.2 380.8,462.8 380.8,648.3 323.6,715.6 				"/>
			</g>
			<g>
				<polygon class="st9" points="665.9,531.4 723.2,464 723.2,649.4 665.9,716.8 				"/>
			</g>
			<g>
				<polygon class="st4" points="723.2,464 723.2,649.4 665.9,716.8 665.9,531.4 				"/>
			</g>
		</g>
	</g>
</g>
<g>
	<g>
		
			<image style="overflow:visible;enable-background:new    ;" width="509" height="153" xlink:href="C70F2020.png"  transform="matrix(0.1965 0 0 0.1965 726.3216 636.3215)">
		</image>
	</g>
</g>
<g class="st10">
	<g>
		
			<image style="overflow:visible;enable-background:new    ;" width="512" height="128" xlink:href="C70F202F.png"  transform="matrix(0.6774 0 0 0.6774 1028.5571 644.6793)">
		</image>
	</g>
</g>
<g>
	<g>
		
			<image style="overflow:visible;enable-background:new    ;" width="54" height="511" xlink:href="C52FA6DB.png"  transform="matrix(0.5752 0 0 0.5752 1133.2225 358.0558)">
		</image>
	</g>
</g>
<g>
	<g>
		
			<image style="overflow:visible;enable-background:new    ;" width="511" height="87" xlink:href="C52FA6DC.png"  transform="matrix(0.3464 0 0 0.3464 968.7264 343.5946)">
		</image>
	</g>
</g>
<g>
	<g>
		
			<image style="overflow:visible;enable-background:new    ;" width="513" height="43" xlink:href="C52FA6DD.png"  transform="matrix(0.6978 0 0 0.6978 413.7099 343.6572)">
		</image>
	</g>
</g>
<rect id="Mercury_Left" x="869.2" y="458.7" class="st11" width="7.4" height="37.5"/>
<rect id="Mercury_Right" x="952.5" y="458.7" class="st11" width="7.5" height="37"/>
<g id="Mercury_Fixed">
	<g>
		<path class="st11" d="M960,494.8c0.1,1,0,5.6-0.1,7.4c-0.1,2.7-0.6,9.4-4.9,17.1c-6.3,11.1-15,17.5-16.9,18.4
			c-3.2,1.5-11.6,8.3-26.1,6c-14.3-2.3-23.2-10.1-27.5-14.4c-11-10.8-15.1-24-15.1-34.3l7.4,0.3c0,8.5,2.2,18.4,11.2,27.4
			c3.5,3.5,9.4,10.7,21,12.6c11.8,1.9,21.9-3.1,24.4-4.3c1.5-0.7,9.5-6.3,14.6-15.5c3.6-6.4,4-10.5,4.1-12.8c0.1-1.4,0.7-7,0.6-7.9
			L960,494.8L960,494.8z"/>
	</g>
</g>
<g>
	<g>
		
			<image style="overflow:visible;enable-background:new    ;" width="510" height="232" xlink:href="C52FA6DE.png"  transform="matrix(6.307670e-02 0 0 6.307670e-02 857.9922 351.4645)">
		</image>
	</g>
</g>
<g class="st12">
	<g>
		
			<image style="overflow:visible;enable-background:new    ;" width="258" height="511" xlink:href="C52FA6DA.png"  transform="matrix(0.3759 0 0 0.3759 865.6761 357.2799)">
		</image>
	</g>
</g>
<g>
	<g>
		
			<image style="overflow:visible;enable-background:new    ;" width="510" height="154" xlink:href="C52FA743.png"  transform="matrix(0.196 0 0 0.196 762.6209 343.5681)">
		</image>
	</g>
</g>
<g>
	<g>
		
			<image style="overflow:visible;enable-background:new    ;" width="513" height="179" xlink:href="C52FA74B.png"  transform="matrix(0.1677 0 0 0.1677 887.2017 343.6542)">
		</image>
	</g>
</g>
<g>
	<g>
		
			<image style="overflow:visible;enable-background:new    ;" width="209" height="510" xlink:href="C52FA74A.png"  transform="matrix(0.1416 0 0 0.1416 1071.6562 641.2478)">
		</image>
	</g>
</g>
<g>
	<g>
		
			<image style="overflow:visible;enable-background:new    ;" width="212" height="510" xlink:href="C52FA74F.png"  transform="matrix(0.1413 0 0 0.1413 811.8473 651.3226)">
		</image>
	</g>
</g>
<g>
	<g>
		
			<image style="overflow:visible;enable-background:new    ;" width="511" height="211" xlink:href="C52FA74C.png"  transform="matrix(0.1411 0 0 0.1411 1078.9618 631.4106)">
		</image>
	</g>
</g>
<g id="Motor_Leg_2">
	<g>
		
			<image style="overflow:visible;enable-background:new    ;" width="509" height="501" xlink:href="C52FA74D.png"  transform="matrix(5.544380e-02 0 0 5.544380e-02 1261.8691 676.2634)">
		</image>
	</g>
</g>
<g id="Motor_Leg_1">
	<g>
		
			<image style="overflow:visible;enable-background:new    ;" width="502" height="502" xlink:href="C52FA74E.png"  transform="matrix(5.577689e-02 0 0 5.577689e-02 1219.614 676.202)">
		</image>
	</g>
</g>
<g id="Motor_Shaft">
	<g>
		
			<image style="overflow:visible;enable-background:new    ;" width="508" height="144" xlink:href="C52FA752.png"  transform="matrix(0.1199 0 0 0.1199 1160.786 636.666)">
		</image>
	</g>
</g>
<g id="Motor">
	<g>
		
			<image style="overflow:visible;enable-background:new    ;" width="514" height="386" xlink:href="B5BEEBF0.png"  transform="matrix(0.2457 0 0 0.2457 1191.2529 596.2787)">
		</image>
	</g>
</g>
<rect id="Water_1" x="1077" y="651.6" class="st7" width="19.6" height="56.8"/>
<rect id="Water_9" x="816.9" y="662.6" class="st7" width="19.6" height="56.8"/>
<rect id="Water_3" x="1140" y="369" class="st7" width="19.6" height="254.5"/>
<rect id="Water_4" x="1071.3" y="349" class="st7" width="77.5" height="19.6"/>
<rect id="Water_2" x="1083.2" y="636.5" class="st7" width="56.8" height="19.6"/>
<rect id="Water_8" x="729.9" y="641.8" class="st7" width="87.2" height="19.6"/>
<circle id="Suction_Pipe_Corner" class="st13" cx="1089" cy="648.4" r="17.4"/>
<circle id="Tank_Empty_Corner" class="st13" cx="823.1" cy="655.3" r="17.4"/>
<g id="Pump">
	<g>
		
			<image style="overflow:visible;enable-background:new    ;" width="398" height="506" xlink:href="C52FA754.png"  transform="matrix(0.1007 0 0 0.1007 1128.7094 619.187)">
		</image>
	</g>
</g>
<rect id="Manometer_Water_Right_00000080197925184150286820000005080878160067944331_" x="954.5" y="363.9" class="st7" width="4.2" height="94.8"/>
<polygon id="Venturimeter_Water_Right" class="st7" points="964.5,367.3 888,363.5 888,354.2 964.5,351.1 "/>
<rect id="Water_6" x="424.7" y="349.4" class="st7" width="338.9" height="19.6"/>
<g id="Fringe_4">
	<g>
		
			<image style="overflow:visible;enable-background:new    ;" width="326" height="505" xlink:href="C52FA755.png"  transform="matrix(8.906778e-02 0 0 8.906778e-02 935.72 336.1717)">
		</image>
	</g>
</g>
<g id="Fringe_3">
	<g>
		
			<image style="overflow:visible;enable-background:new    ;" width="324" height="505" xlink:href="C52FA756.png"  transform="matrix(8.922845e-02 0 0 8.922845e-02 756.675 336.1311)">
		</image>
	</g>
</g>
<g id="Fringe_2">
	<g>
		
			<image style="overflow:visible;enable-background:new    ;" width="328" height="505" xlink:href="C52FA757.png"  transform="matrix(8.890700e-02 0 0 8.890700e-02 944.9126 336.2123)">
		</image>
	</g>
</g>
<rect id="Water_5" x="965.4" y="349.4" class="st7" width="93.8" height="19.6"/>
<circle id="Corner_Top_Right" class="st13" cx="1148.8" cy="362.7" r="17.4"/>
<g id="Fringe_1">
	<g>
		
			<image style="overflow:visible;enable-background:new    ;" width="321" height="505" xlink:href="C52FA758.png"  transform="matrix(8.946922e-02 0 0 8.946922e-02 765.5546 336.0703)">
		</image>
	</g>
</g>
<ellipse id="Suction_Pipe_Opening" class="st7" cx="1086.8" cy="708.6" rx="9.8" ry="3"/>
<ellipse id="Tank_Empty_End" class="st7" cx="826.8" cy="719.3" rx="9.8" ry="3"/>
<polygon id="Tank_Water_Back" class="st7" points="380.4,538.9 723.2,539.8 723.2,648.9 380.4,648.9 "/>
<g>
	<polygon class="st1" points="725.4,462.9 725.4,648.3 666.5,717.5 666.5,532.1 	"/>
</g>
<g id="Tank_Empty_Control">
	<g>
		<g>
			
				<image style="overflow:visible;enable-background:new    ;" width="412" height="508" xlink:href="C52FA7C7.png"  transform="matrix(9.887402e-02 0 0 9.887402e-02 692.5448 626.1713)">
			</image>
		</g>
	</g>
	<g>
		<g>
			
				<image style="overflow:visible;enable-background:new    ;" width="168" height="503" xlink:href="C52FA7CF.png"  transform="matrix(3.819093e-02 0 0 3.819093e-02 709.7048 612.3116)">
			</image>
		</g>
	</g>
	<g>
		<g>
			
				<image style="overflow:visible;enable-background:new    ;" width="503" height="188" xlink:href="C52FA7C1.png"  transform="matrix(8.546718e-02 0 0 8.546718e-02 691.4179 606.404)">
			</image>
		</g>
	</g>
</g>
<g id="Tank_Empty_Control_00000000920067168395717810000001351023711700812424_">
	<g>
		<g>
			
				<image style="overflow:visible;enable-background:new    ;" width="412" height="508" xlink:href="C52FA7C7.png"  transform="matrix(9.887402e-02 0 0 9.887402e-02 1044.9369 334.1697)">
			</image>
		</g>
	</g>
	<g>
		<g>
			
				<image style="overflow:visible;enable-background:new    ;" width="168" height="503" xlink:href="C52FA7CF.png"  transform="matrix(3.819093e-02 0 0 3.819093e-02 1062.0968 320.3099)">
			</image>
		</g>
	</g>
	<g>
		<g>
			
				<image style="overflow:visible;enable-background:new    ;" width="503" height="188" xlink:href="C52FA7C1.png"  transform="matrix(8.546718e-02 0 0 8.546718e-02 1043.8099 314.4023)">
			</image>
		</g>
	</g>
</g>
<polygon id="Tank_Water_Left" class="st7" points="380.5,647.7 322.5,718.3 322.5,608.3 380.1,537.7 "/>
<g>
	<g>
		
			<image style="overflow:visible;enable-background:new    ;" width="99" height="512" xlink:href="C70F2021.png"  transform="matrix(0.3085 0 0 0.3085 402.9937 360.5516)">
		</image>
	</g>
</g>
<rect id="Water_7" x="408.5" y="371.2" class="st7" width="19.6" height="297.1"/>
<rect id="Tank_Water_Front" x="322.5" y="608.3" class="st14" width="344.8" height="110"/>
<circle id="Corner_Top_Left" class="st13" cx="422.3" cy="361.8" r="17.4"/>
<line class="st15" x1="667.1" y1="533.1" x2="322.7" y2="532.1"/>
<g>
	<g>
		<g>
			
				<image style="overflow:visible;enable-background:new    ;" width="513" height="238" xlink:href="C52FA7C2.png"  transform="matrix(0.4361 0 0 0.4361 157.847 352.5827)">
			</image>
		</g>
	</g>
	<path class="st16" d="M343.7,442.2H190.3c-10.2,0-18.4-8.2-18.4-18.4v-29.5c0-10.2,8.2-18.4,18.4-18.4h153.4
		c10.2,0,18.4,8.2,18.4,18.4v29.5C362.1,434,353.9,442.2,343.7,442.2z"/>
</g>
<g>
	<g>
		
			<image style="overflow:visible;enable-background:new    ;" width="513" height="284" xlink:href="C52FA7C3.png"  transform="matrix(0.3177 0 0 0.3177 1206.5643 476.6962)">
		</image>
	</g>
</g>
<path class="st17" d="M1324.7,558.8h-80.6c-12.2,0-22.2-9.9-22.2-22.2v-21.2c0-12.2,9.9-22.2,22.2-22.2h80.6
	c12.2,0,22.2,9.9,22.2,22.2v21.2C1346.9,548.8,1336.9,558.8,1324.7,558.8z"/>
<text transform="matrix(0.945 0 0 1 179.6562 416.2695)" class="st18 st19">00</text>
<text transform="matrix(1.0432 0 0 1 1251.4033 539.3828)" class="st18 st20">0 %</text>
<g>
	<g>
		
			<image style="overflow:visible;enable-background:new    ;" width="515" height="174" xlink:href="C52FA7C4.png"  transform="matrix(0.5324 0 0 0.5324 731.296 219.4745)">
		</image>
	</g>
</g>
<path class="st17" d="M967.7,303.9H766.9c-12.2,0-22.2-9.9-22.2-22.2v-23.4c0-12.2,9.9-22.2,22.2-22.2h200.8
	c12.2,0,22.2,9.9,22.2,22.2v23.4C989.8,294,979.9,303.9,967.7,303.9z"/>
<text transform="matrix(0.9887 0 0 1 754.7246 283.2407)" class="st18 st20">100 mm Hg</text>
<text transform="matrix(1.0432 0 0 1 1216.9141 458.7256)" class="st21 st22">Flow Rate</text>
<text transform="matrix(1.0397 0 0 1 723.2002 199.7856)" class="st21 st22">Manometer Reading</text>
<text transform="matrix(0.945 0 0 1 246.7207 415.918)" class="st18 st19">00</text>
<text transform="matrix(0.945 0 0 1 311.1899 416.7715)" class="st18 st19">00</text>
<text transform="matrix(0.8527 0 0 1 188.6479 434.3955)" class="st18 st23">min</text>
<text transform="matrix(0.8527 0 0 1 257.0015 433.542)" class="st18 st23">sec</text>
<text transform="matrix(0.8527 0 0 1 324.2129 433.542)" class="st18 st23">ms</text>
<text transform="matrix(0.945 0 0 1 232.1089 412.501)" class="st18 st24">:</text>
<text transform="matrix(0.945 0 0 1 295.7305 412.1719)" class="st18 st24">:</text>
<g id="Manometer_Scale">
	<g>
		<g>
			
				<image style="overflow:visible;enable-background:new    ;" width="100" height="513" xlink:href="C52FA7C0.png"  transform="matrix(0.2887 0 0 0.2887 902.9393 377.8034)">
			</image>
		</g>
	</g>
	<g>
		<line class="st25" x1="904.1" y1="464" x2="926.5" y2="464"/>
		<line class="st25" x1="904.1" y1="470.7" x2="926.5" y2="470.7"/>
		<line class="st25" x1="904.1" y1="477.4" x2="926.5" y2="477.4"/>
		<line class="st25" x1="904.1" y1="484.1" x2="926.5" y2="484.1"/>
		<line class="st25" x1="904.1" y1="490.8" x2="926.5" y2="490.8"/>
		<line class="st25" x1="904.1" y1="497.5" x2="926.5" y2="497.5"/>
		<line class="st25" x1="904.1" y1="504.2" x2="926.5" y2="504.2"/>
		<line class="st25" x1="904.1" y1="510.9" x2="926.5" y2="510.9"/>
		<line class="st25" x1="904.1" y1="517.6" x2="926.5" y2="517.6"/>
		<g>
			<rect x="904.2" y="378.2" class="st25" width="22.3" height="147.4"/>
			<line class="st25" x1="904.1" y1="385.7" x2="926.5" y2="385.7"/>
			<line class="st25" x1="904.1" y1="392" x2="926.5" y2="392"/>
			<line class="st25" x1="904.1" y1="398.2" x2="926.5" y2="398.2"/>
			<line class="st25" x1="904.1" y1="404.5" x2="926.5" y2="404.5"/>
			<line class="st25" x1="904.1" y1="410.7" x2="926.5" y2="410.7"/>
			<line class="st25" x1="904.1" y1="417" x2="926.5" y2="417"/>
			<line class="st25" x1="904.1" y1="423.7" x2="926.5" y2="423.7"/>
			<line class="st25" x1="904.1" y1="430.4" x2="926.5" y2="430.4"/>
			<line class="st25" x1="904.1" y1="437.1" x2="926.5" y2="437.1"/>
			<line class="st25" x1="904.1" y1="443.8" x2="926.5" y2="443.8"/>
			<line class="st25" x1="904.1" y1="450.5" x2="926.5" y2="450.5"/>
			<line class="st25" x1="904.1" y1="457.3" x2="926.5" y2="457.3"/>
			<rect x="910.4" y="379" class="st26" width="9.8" height="144.8"/>
			<text transform="matrix(1.1057 0 0 1 911.5381 387.127)" class="st18 st27">100</text>
			<text transform="matrix(1.1057 0 0 1 911.5371 519.4229)" class="st18 st27">100</text>
			<text transform="matrix(1.144 0 0 1 913.5791 392.9932)" class="st18 st28">90</text>
			<text transform="matrix(1.0581 0 0 1 913.7354 399.1992)" class="st18 st29">80</text>
			<text transform="matrix(1.0581 0 0 1 913.7656 405.6309)" class="st18 st29">70</text>
			<text transform="matrix(1.0581 0 0 1 913.7656 411.7178)" class="st18 st29">60</text>
			<text transform="matrix(1.0581 0 0 1 913.7656 418.373)" class="st18 st29">50</text>
			<text transform="matrix(1.0581 0 0 1 914.0088 425.3896)" class="st18 st29">40</text>
			<text transform="matrix(1.0581 0 0 1 913.7656 431.5928)" class="st18 st29">30</text>
			<text transform="matrix(1.0581 0 0 1 913.7656 438.1875)" class="st18 st29">20</text>
			<text transform="matrix(1.0581 0 0 1 913.7656 444.8975)" class="st18 st29">10</text>
			<text transform="matrix(1.0581 0 0 1 914.9121 451.9258)" class="st18 st29">0</text>
			<text transform="matrix(1.0581 0 0 1 913.7656 458.6719)" class="st18 st29">10</text>
			<text transform="matrix(1.0581 0 0 1 913.9453 465.2354)" class="st18 st29">20</text>
			<text transform="matrix(1.0581 0 0 1 913.7656 485.3525)" class="st18 st29">50</text>
			<text transform="matrix(1.0581 0 0 1 913.5781 492.1719)" class="st18 st29">60</text>
			<text transform="matrix(1.0581 0 0 1 913.5781 498.9893)" class="st18 st29">70</text>
			<text transform="matrix(1.0581 0 0 1 913.5781 505.5879)" class="st18 st29">80</text>
			<text transform="matrix(1.0581 0 0 1 913.5781 512.2939)" class="st18 st29">90</text>
			<text transform="matrix(1.0581 0 0 1 913.7656 478.5498)" class="st18 st29">40</text>
			<text transform="matrix(1.0581 0 0 1 913.7656 471.96)" class="st18 st29">30</text>
		</g>
	</g>
</g>
<g>
	<g>
		<g>
			
				<image style="overflow:visible;enable-background:new    ;" width="90" height="513" xlink:href="C52FA7DE.png"  transform="matrix(0.9477 0 0 0.2422 207.3978 595.8815)">
			</image>
		</g>
	</g>
	<line class="st25" x1="208.4" y1="676.9" x2="278.7" y2="676.9"/>
	<line class="st25" x1="208.4" y1="687.2" x2="278.7" y2="687.2"/>
	<line class="st25" x1="208.4" y1="698.5" x2="278.7" y2="698.5"/>
	<line class="st25" x1="208.4" y1="709.8" x2="278.7" y2="709.8"/>
	<rect x="208.6" y="596" class="st25" width="69.8" height="124.2"/>
	<line class="st25" x1="208.4" y1="613.6" x2="278.7" y2="613.6"/>
	<path class="st25" d="M279,612.8"/>
	<path class="st25" d="M208.7,612.8"/>
	<line class="st25" x1="208.4" y1="624.1" x2="278.7" y2="624.1"/>
	<path class="st25" d="M278.7,623.4"/>
	<path class="st25" d="M208.4,623.4"/>
	<line class="st25" x1="208.4" y1="634.7" x2="278.7" y2="634.7"/>
	<path class="st25" d="M278.7,634.3"/>
	<path class="st25" d="M208.4,634.3"/>
	<line class="st25" x1="208.4" y1="646" x2="278.7" y2="646"/>
	<path class="st25" d="M278.7,645.6"/>
	<path class="st25" d="M208.4,645.6"/>
	<line class="st25" x1="208.4" y1="656.3" x2="278.7" y2="656.3"/>
	<line class="st25" x1="208.4" y1="666.6" x2="278.7" y2="666.6"/>
	<rect x="228.1" y="596.6" class="st26" width="30.7" height="122"/>
	<text transform="matrix(1.1284 0 0 1 236.521 604.7285)" class="st18 st30">cm</text>
	<text transform="matrix(1.2838 0 0 1 240.3789 713.875)" class="st18 st31">1</text>
	<text transform="matrix(1.2838 0 0 1 240.3789 702.3857)" class="st18 st31">2</text>
	<text transform="matrix(1.2838 0 0 1 240.3789 691.0996)" class="st18 st31">3</text>
	<text transform="matrix(1.2838 0 0 1 240.3789 679.9932)" class="st18 st31">4</text>
	<text transform="matrix(1.2838 0 0 1 240.3789 670.1758)" class="st18 st31">5</text>
	<text transform="matrix(1.2838 0 0 1 240.3789 659.9053)" class="st18 st31">6</text>
	<text transform="matrix(1.2838 0 0 1 240.3789 650.0547)" class="st18 st31">7</text>
	<text transform="matrix(1.2838 0 0 1 240.3789 638.8203)" class="st18 st31">8</text>
	<text transform="matrix(1.2838 0 0 1 240.3789 628.0242)" class="st18 st31">9</text>
	<text transform="matrix(1.2838 0 0 1 236.3789 617.3071)" class="st18 st31">10</text>
</g>
<text transform="matrix(0.9985 0 0 1 909.9541 382.2563)" class="st18 st32">mm Hg</text>
<polygon id="Venturimeter_Water_Left" class="st7" points="785.1,350.4 861.6,354.2 861.6,363.5 785.1,366.6 "/>
<ellipse id="Venturimeter_Opening_2" class="st7" cx="785.1" cy="358.5" rx="3.5" ry="8.1"/>
<ellipse id="Venturimeter_Opening_1" class="st7" cx="965.4" cy="359.2" rx="3.5" ry="9.8"/>
<rect id="Venturimeter_Throat" x="861.6" y="354.2" class="st7" width="26.3" height="9.3"/>
<rect id="Manometer_Water_Flow_Path" x="871.6" y="363.5" class="st26" width="4.5" height="2.7"/>
<rect id="Manometer_Water_Right" x="871.6" y="363.5" class="st7" width="4.5" height="95.2"/>
<path class="st33" d="M1230.7,596.5c-3.2,8.6-8.3,24.9-8.3,46.5c0,21.7,5.1,38.2,8.3,46.8"/>
<path class="st33" d="M1276.8,596.5c-3.2,8.6-8.1,24.9-8.2,46.5c0,21.7,5,38.2,8.2,46.8"/>
<line class="st33" x1="1227.4" y1="606.8" x2="1273.6" y2="606.8"/>
<line class="st33" x1="1226.1" y1="611.5" x2="1272.4" y2="611.5"/>
<line class="st33" x1="1225.4" y1="616.2" x2="1271.6" y2="616.2"/>
<line class="st33" x1="1224.5" y1="621.2" x2="1270.7" y2="621.2"/>
<line class="st33" x1="1223.6" y1="626.4" x2="1269.8" y2="626.4"/>
<line class="st33" x1="1223" y1="632" x2="1269.3" y2="632"/>
<line class="st33" x1="1222.4" y1="637.6" x2="1268.6" y2="637.6"/>
<line class="st33" x1="1222" y1="643.1" x2="1268.3" y2="643.1"/>
<line class="st33" x1="1222.4" y1="648.5" x2="1268.6" y2="648.5"/>
<line class="st33" x1="1222.4" y1="653.7" x2="1268.6" y2="653.7"/>
<line class="st33" x1="1223.6" y1="659.5" x2="1269.8" y2="659.5"/>
<line class="st33" x1="1224.2" y1="665.1" x2="1270.4" y2="665.1"/>
<line class="st33" x1="1225.3" y1="670.2" x2="1271.5" y2="670.2"/>
<line class="st33" x1="1226.2" y1="675.1" x2="1272.5" y2="675.1"/>
<line class="st33" x1="1227.6" y1="680.1" x2="1273.8" y2="680.1"/>
<line class="st33" x1="1228.7" y1="684.4" x2="1275" y2="684.4"/>
<line class="st33" x1="1230.6" y1="689.3" x2="1276.8" y2="689.3"/>
<line class="st33" x1="1229.2" y1="601.6" x2="1275.4" y2="601.6"/>
<line class="st33" x1="1230.7" y1="596.8" x2="1277" y2="596.8"/>
</svg>
